<mxfile host="Electron" agent="Mozilla/5.0 (Windows NT 10.0; Win64; x64) AppleWebKit/537.36 (KHTML, like Gecko) draw.io/24.7.8 Chrome/128.0.6613.36 Electron/32.0.1 Safari/537.36" version="24.7.8">
  <diagram name="Page-1" id="YXa3wtoibJV_mE1iQ4w_">
    <mxGraphModel dx="1098" dy="988" grid="1" gridSize="10" guides="1" tooltips="1" connect="1" arrows="1" fold="1" page="1" pageScale="1" pageWidth="850" pageHeight="1100" math="0" shadow="0">
      <root>
        <mxCell id="0" />
        <mxCell id="1" parent="0" />
        <mxCell id="Y7nloDIOs2SfHfphFqJo-1" value="Ptr to T" style="rounded=0;whiteSpace=wrap;html=1;fontSize=14;" parent="1" vertex="1">
          <mxGeometry x="50" y="170" width="140" height="30" as="geometry" />
        </mxCell>
        <mxCell id="Y7nloDIOs2SfHfphFqJo-2" value="Ptr to Control Block" style="rounded=0;whiteSpace=wrap;html=1;fontSize=14;" parent="1" vertex="1">
          <mxGeometry x="50" y="200" width="140" height="30" as="geometry" />
        </mxCell>
        <mxCell id="Y7nloDIOs2SfHfphFqJo-3" value="T Object" style="rounded=0;whiteSpace=wrap;html=1;fontSize=14;" parent="1" vertex="1">
          <mxGeometry x="240" y="170" width="140" height="30" as="geometry" />
        </mxCell>
        <mxCell id="Y7nloDIOs2SfHfphFqJo-4" value="std::shared_ptr&amp;lt;T&amp;gt;" style="text;html=1;align=center;verticalAlign=middle;whiteSpace=wrap;rounded=0;fontSize=14;" parent="1" vertex="1">
          <mxGeometry x="50" y="140" width="140" height="30" as="geometry" />
        </mxCell>
        <mxCell id="Y7nloDIOs2SfHfphFqJo-5" value="Control Block" style="text;html=1;align=center;verticalAlign=middle;whiteSpace=wrap;rounded=0;fontSize=14;" parent="1" vertex="1">
          <mxGeometry x="240" y="210" width="140" height="30" as="geometry" />
        </mxCell>
        <mxCell id="Y7nloDIOs2SfHfphFqJo-6" value="Reference Count" style="rounded=0;whiteSpace=wrap;html=1;fontSize=14;" parent="1" vertex="1">
          <mxGeometry x="240" y="240" width="140" height="30" as="geometry" />
        </mxCell>
        <mxCell id="Y7nloDIOs2SfHfphFqJo-7" value="Weak Count" style="rounded=0;whiteSpace=wrap;html=1;fontSize=14;" parent="1" vertex="1">
          <mxGeometry x="240" y="270" width="140" height="30" as="geometry" />
        </mxCell>
        <mxCell id="Y7nloDIOs2SfHfphFqJo-8" value="Other Data&lt;div&gt;(e.g., custom deleter, allocator, etc)&lt;/div&gt;" style="rounded=0;whiteSpace=wrap;html=1;fontSize=14;" parent="1" vertex="1">
          <mxGeometry x="240" y="300" width="140" height="70" as="geometry" />
        </mxCell>
        <mxCell id="Y7nloDIOs2SfHfphFqJo-9" value="" style="endArrow=classic;html=1;rounded=0;exitX=1;exitY=0.5;exitDx=0;exitDy=0;entryX=0;entryY=0.5;entryDx=0;entryDy=0;" parent="1" source="Y7nloDIOs2SfHfphFqJo-1" target="Y7nloDIOs2SfHfphFqJo-3" edge="1">
          <mxGeometry width="50" height="50" relative="1" as="geometry">
            <mxPoint x="190" y="230" as="sourcePoint" />
            <mxPoint x="240" y="180" as="targetPoint" />
          </mxGeometry>
        </mxCell>
        <mxCell id="Y7nloDIOs2SfHfphFqJo-10" value="" style="endArrow=classic;html=1;rounded=0;exitX=1;exitY=0.25;exitDx=0;exitDy=0;entryX=0;entryY=0.5;entryDx=0;entryDy=0;" parent="1" source="Y7nloDIOs2SfHfphFqJo-2" target="Y7nloDIOs2SfHfphFqJo-6" edge="1">
          <mxGeometry width="50" height="50" relative="1" as="geometry">
            <mxPoint x="200" y="195" as="sourcePoint" />
            <mxPoint x="250" y="195" as="targetPoint" />
          </mxGeometry>
        </mxCell>
      </root>
    </mxGraphModel>
  </diagram>
</mxfile>
